<?xml version="1.0" encoding="UTF-8" standalone="no"?>
<!-- Generator: Adobe Illustrator 19.0.0, SVG Export Plug-In . SVG Version: 6.00 Build 0)  -->

<svg
   version="1.1"
   id="Capa_1"
   x="0px"
   y="0px"
   viewBox="0 0 23.999998 19.999999"
   xml:space="preserve"
   sodipodi:docname="vikinghelmet.svg"
   width="23.999998"
   height="20"
   inkscape:version="1.1.2 (0a00cf5339, 2022-02-04)"
   xmlns:inkscape="http://www.inkscape.org/namespaces/inkscape"
   xmlns:sodipodi="http://sodipodi.sourceforge.net/DTD/sodipodi-0.dtd"
   xmlns="http://www.w3.org/2000/svg"
   xmlns:svg="http://www.w3.org/2000/svg"><defs
   id="defs42566" /><sodipodi:namedview
   id="namedview42564"
   pagecolor="#ffffff"
   bordercolor="#666666"
   borderopacity="1.0"
   inkscape:pageshadow="2"
   inkscape:pageopacity="0.0"
   inkscape:pagecheckerboard="0"
   showgrid="false"
   inkscape:zoom="14.857772"
   inkscape:cx="-5.7545639"
   inkscape:cy="8.7832817"
   inkscape:window-width="2558"
   inkscape:window-height="1418"
   inkscape:window-x="0"
   inkscape:window-y="20"
   inkscape:window-maximized="1"
   inkscape:current-layer="Capa_1" />
<g
   id="g42531"
   transform="matrix(0.05105756,0,0,0.06500616,1.7259503e-5,-5.2782953)"
   style="fill:#de167d;fill-opacity:1">
	<path
   d="m 462.419,167.799 c 8.09,-26.183 9.764,-53.235 4.973,-80.404 -0.526,-2.987 -2.801,-5.363 -5.763,-6.02 -2.961,-0.654 -6.026,0.535 -7.767,3.021 -20.12,28.734 -49.444,49.946 -82.908,60.081 -23.65,-21.844 -52.383,-37.862 -83.429,-46.297 v -4.44 c 0,-3.501 -2.422,-6.536 -5.835,-7.313 -30.5,-6.942 -62.855,-6.936 -93.318,-0.002 -3.414,0.777 -5.836,3.812 -5.836,7.313 V 98.18 C 151.49,106.614 122.755,122.633 99.103,144.478 65.64,134.342 36.315,113.13 16.195,84.395 14.456,81.91 11.386,80.72 8.428,81.374 c -2.962,0.657 -5.236,3.033 -5.763,6.02 -4.791,27.169 -3.117,54.221 4.973,80.404 7.269,23.522 19.742,45.539 36.186,63.953 -5.195,16.72 -8.167,34.183 -8.815,52.108 h -2.644 c -4.143,0 -7.5,3.358 -7.5,7.5 v 23.074 c -8.729,3.096 -15,11.432 -15,21.21 0,9.778 6.271,18.114 15,21.21 v 24.496 c 0,4.142 3.357,7.5 7.5,7.5 l 405.327,0.011 c 1.989,0 3.896,-0.79 5.304,-2.197 1.406,-1.406 2.196,-3.314 2.196,-5.303 v -24.506 c 8.729,-3.096 15,-11.432 15,-21.21 0,-9.778 -6.271,-18.114 -15,-21.21 V 291.36 c 0,-4.142 -3.357,-7.5 -7.5,-7.5 h -2.644 c -0.648,-17.926 -3.62,-35.389 -8.815,-52.109 16.445,-18.414 28.918,-40.43 36.186,-63.952 z m -7.686,-60.24 c 2.525,39.133 -9.563,77.244 -34.348,107.936 -7.147,-17.415 -16.816,-33.865 -28.905,-48.991 -2.781,-3.48 -5.679,-6.855 -8.678,-10.13 27.739,-9.826 52.561,-26.69 71.931,-48.815 z m -439.408,0 c 19.37,22.126 44.192,38.99 71.932,48.815 -2.998,3.275 -5.896,6.649 -8.677,10.128 C 66.491,181.628 56.821,198.08 49.674,215.496 24.888,184.804 12.799,146.692 15.325,107.559 Z m 43.792,125.644 c 0.263,-0.55 0.458,-1.124 0.579,-1.712 9.302,-27.441 24.865,-52.12 45.245,-72.183 0.997,-0.593 1.86,-1.413 2.498,-2.417 20.766,-19.685 46.287,-34.674 75.096,-43.133 l -0.004,117.602 c 0,4.143 3.357,7.5 7.5,7.5 4.142,0 7.5,-3.358 7.5,-7.5 l 0.005,-131.543 c 24.604,-4.803 50.364,-4.809 74.989,0.002 V 283.86 h -74.994 v -22.5 c 0,-4.142 -3.357,-7.5 -7.5,-7.5 -4.143,0 -7.5,3.358 -7.5,7.5 v 22.5 H 50.019 c 0.695,-17.568 3.823,-34.577 9.098,-50.657 z M 430.193,373.86 39.866,373.849 v -23.206 -30 -21.783 h 390.327 v 21.784 30 z m -142.667,-90 V 113.759 c 28.808,8.46 54.327,23.448 75.092,43.132 0.638,1.005 1.503,1.826 2.501,2.42 20.378,20.062 35.94,44.738 45.242,72.177 0.122,0.591 0.318,1.168 0.582,1.721 5.275,16.079 8.402,33.086 9.097,50.653 H 287.526 Z"
   id="path42517"
   style="fill:#de167d;fill-opacity:1" />
	<path
   d="m 104.43,313.144 c -12.406,0 -22.5,10.093 -22.5,22.5 0,12.407 10.094,22.5 22.5,22.5 12.406,0 22.5,-10.093 22.5,-22.5 0,-12.407 -10.094,-22.5 -22.5,-22.5 z m 0,30 c -4.136,0 -7.5,-3.364 -7.5,-7.5 0,-4.136 3.364,-7.5 7.5,-7.5 4.136,0 7.5,3.364 7.5,7.5 0,4.136 -3.364,7.5 -7.5,7.5 z"
   id="path42519"
   style="fill:#de167d;fill-opacity:1" />
	<path
   d="m 191.496,313.144 c -12.406,0 -22.5,10.093 -22.5,22.5 0,12.407 10.094,22.5 22.5,22.5 12.406,0 22.5,-10.093 22.5,-22.5 0,-12.407 -10.093,-22.5 -22.5,-22.5 z m 0,30 c -4.136,0 -7.5,-3.364 -7.5,-7.5 0,-4.136 3.364,-7.5 7.5,-7.5 4.136,0 7.5,3.364 7.5,7.5 0,4.136 -3.364,7.5 -7.5,7.5 z"
   id="path42521"
   style="fill:#de167d;fill-opacity:1" />
	<path
   d="m 278.562,313.144 c -12.406,0 -22.5,10.093 -22.5,22.5 0,12.407 10.094,22.5 22.5,22.5 12.406,0 22.5,-10.093 22.5,-22.5 0,-12.407 -10.094,-22.5 -22.5,-22.5 z m 0,30 c -4.136,0 -7.5,-3.364 -7.5,-7.5 0,-4.136 3.364,-7.5 7.5,-7.5 4.136,0 7.5,3.364 7.5,7.5 0,4.136 -3.364,7.5 -7.5,7.5 z"
   id="path42523"
   style="fill:#de167d;fill-opacity:1" />
	<path
   d="m 365.627,313.144 c -12.406,0 -22.5,10.093 -22.5,22.5 0,12.407 10.094,22.5 22.5,22.5 12.406,0 22.5,-10.093 22.5,-22.5 0,-12.407 -10.093,-22.5 -22.5,-22.5 z m 0,30 c -4.136,0 -7.5,-3.364 -7.5,-7.5 0,-4.136 3.364,-7.5 7.5,-7.5 4.136,0 7.5,3.364 7.5,7.5 0,4.136 -3.364,7.5 -7.5,7.5 z"
   id="path42525"
   style="fill:#de167d;fill-opacity:1" />
	<path
   d="m 235.029,168.996 c 12.406,0 22.5,-10.093 22.5,-22.5 0,-12.407 -10.094,-22.5 -22.5,-22.5 -12.406,0 -22.5,10.093 -22.5,22.5 0,12.407 10.093,22.5 22.5,22.5 z m 0,-30 c 4.136,0 7.5,3.364 7.5,7.5 0,4.136 -3.364,7.5 -7.5,7.5 -4.136,0 -7.5,-3.364 -7.5,-7.5 0,-4.136 3.364,-7.5 7.5,-7.5 z"
   id="path42527"
   style="fill:#de167d;fill-opacity:1" />
	<path
   d="m 235.029,256.061 c 12.406,0 22.5,-10.093 22.5,-22.5 0,-12.407 -10.094,-22.5 -22.5,-22.5 -12.406,0 -22.5,10.093 -22.5,22.5 0,12.407 10.093,22.5 22.5,22.5 z m 0,-30 c 4.136,0 7.5,3.364 7.5,7.5 0,4.136 -3.364,7.5 -7.5,7.5 -4.136,0 -7.5,-3.364 -7.5,-7.5 0,-4.136 3.364,-7.5 7.5,-7.5 z"
   id="path42529"
   style="fill:#de167d;fill-opacity:1" />
</g>
<g
   id="g42533"
   transform="translate(3.3804011e-4,-81.196852)">
</g>
<g
   id="g42535"
   transform="translate(3.3804011e-4,-81.196852)">
</g>
<g
   id="g42537"
   transform="translate(3.3804011e-4,-81.196852)">
</g>
<g
   id="g42539"
   transform="translate(3.3804011e-4,-81.196852)">
</g>
<g
   id="g42541"
   transform="translate(3.3804011e-4,-81.196852)">
</g>
<g
   id="g42543"
   transform="translate(3.3804011e-4,-81.196852)">
</g>
<g
   id="g42545"
   transform="translate(3.3804011e-4,-81.196852)">
</g>
<g
   id="g42547"
   transform="translate(3.3804011e-4,-81.196852)">
</g>
<g
   id="g42549"
   transform="translate(3.3804011e-4,-81.196852)">
</g>
<g
   id="g42551"
   transform="translate(3.3804011e-4,-81.196852)">
</g>
<g
   id="g42553"
   transform="translate(3.3804011e-4,-81.196852)">
</g>
<g
   id="g42555"
   transform="translate(3.3804011e-4,-81.196852)">
</g>
<g
   id="g42557"
   transform="translate(3.3804011e-4,-81.196852)">
</g>
<g
   id="g42559"
   transform="translate(3.3804011e-4,-81.196852)">
</g>
<g
   id="g42561"
   transform="translate(3.3804011e-4,-81.196852)">
</g>
</svg>
